<svg width="120" height="120" viewBox="0 0 120 120" fill="none" xmlns="http://www.w3.org/2000/svg">
  <!-- Background circle -->
  <circle cx="60" cy="60" r="60" fill="#FFD6E0"/>
  
  <!-- Cat head silhouette -->
  <ellipse cx="60" cy="55" rx="28" ry="30" fill="#1A1A1A"/>
  
  <!-- Ears -->
  <path d="M35 40 L30 20 L45 35 Z" fill="#1A1A1A"/>
  <path d="M85 40 L90 20 L75 35 Z" fill="#1A1A1A"/>
  
  <!-- Octopus arms/tentacles -->
  <path d="M40 75 Q35 85 30 95 L28 98" stroke="#1A1A1A" stroke-width="4" stroke-linecap="round" fill="none"/>
  <path d="M48 78 Q45 88 42 98 L40 100" stroke="#1A1A1A" stroke-width="4" stroke-linecap="round" fill="none"/>
  <path d="M56 80 Q55 90 52 100 L50 102" stroke="#1A1A1A" stroke-width="4" stroke-linecap="round" fill="none"/>
  <path d="M64 80 Q65 90 68 100 L70 102" stroke="#1A1A1A" stroke-width="4" stroke-linecap="round" fill="none"/>
  <path d="M72 78 Q75 88 78 98 L80 100" stroke="#1A1A1A" stroke-width="4" stroke-linecap="round" fill="none"/>
  <path d="M80 75 Q85 85 90 95 L92 98" stroke="#1A1A1A" stroke-width="4" stroke-linecap="round" fill="none"/>
  
  <!-- Chopsticks crossed (restaurant theme) -->
  <line x1="35" y1="50" x2="45" y2="35" stroke="#D4AF37" stroke-width="2"/>
  <line x1="85" y1="50" x2="75" y2="35" stroke="#D4AF37" stroke-width="2"/>
  
  <!-- Eyes -->
  <circle cx="52" cy="52" r="3" fill="#FFD6E0"/>
  <circle cx="68" cy="52" r="3" fill="#FFD6E0"/>
  
  <!-- 361 Text -->
  <text x="60" y="115" font-family="Arial, sans-serif" font-size="14" font-weight="bold" fill="#1A1A1A" text-anchor="middle">361°</text>
</svg>

